<svg xmlns="http://www.w3.org/2000/svg" xmlns:xlink="http://www.w3.org/1999/xlink" width="500" zoomAndPan="magnify" viewBox="0 0 375 374.999991" height="500" preserveAspectRatio="xMidYMid meet" version="1.0"><defs><clipPath id="178f3786df"><path d="M 63.773438 43.210938 L 311.460938 43.210938 L 311.460938 331.707031 L 63.773438 331.707031 Z M 63.773438 43.210938 " clip-rule="nonzero"/></clipPath><clipPath id="32ad07a8e5"><path d="M 95.984375 127.425781 L 227.714844 127.425781 L 227.714844 308.804688 L 95.984375 308.804688 Z M 95.984375 127.425781 " clip-rule="nonzero"/></clipPath><clipPath id="ac6119a7d9"><path d="M 141.433594 161.292969 L 273.164062 161.292969 L 273.164062 319.5 L 141.433594 319.5 Z M 141.433594 161.292969 " clip-rule="nonzero"/></clipPath><clipPath id="ef29f6c699"><path d="M 140.816406 156.542969 L 233.816406 156.542969 L 233.816406 259.035156 L 140.816406 259.035156 Z M 140.816406 156.542969 " clip-rule="nonzero"/></clipPath></defs><path fill="#e11d48" d="M 286.746094 125.660156 L 296.074219 125.660156 C 296.679688 125.644531 297.273438 125.542969 297.851562 125.355469 C 298.429688 125.164062 298.96875 124.898438 299.46875 124.550781 C 299.96875 124.203125 300.40625 123.792969 300.789062 123.316406 C 301.167969 122.839844 301.46875 122.320312 301.699219 121.757812 C 301.925781 121.195312 302.066406 120.609375 302.121094 120.003906 C 302.179688 119.398438 302.148438 118.796875 302.027344 118.199219 C 301.90625 117.605469 301.703125 117.035156 301.417969 116.5 C 301.132812 115.960938 300.777344 115.476562 300.351562 115.046875 L 239.183594 53.777344 C 238.746094 53.34375 238.257812 52.988281 237.71875 52.699219 C 237.175781 52.414062 236.605469 52.210938 236.003906 52.09375 C 235.402344 51.976562 234.796875 51.949219 234.1875 52.007812 C 233.578125 52.070312 232.992188 52.214844 232.425781 52.449219 C 231.859375 52.683594 231.339844 52.992188 230.863281 53.378906 C 230.390625 53.765625 229.980469 54.214844 229.636719 54.722656 C 229.292969 55.230469 229.03125 55.777344 228.851562 56.359375 C 228.667969 56.945312 228.574219 57.542969 228.566406 58.15625 L 228.566406 67.484375 C 228.566406 69.390625 228.660156 71.289062 228.84375 73.1875 C 229.027344 75.082031 229.308594 76.96875 229.675781 78.835938 C 230.046875 80.707031 230.507812 82.550781 231.0625 84.375 C 231.613281 86.199219 232.253906 87.992188 232.984375 89.753906 C 233.710938 91.515625 234.523438 93.238281 235.421875 94.917969 C 236.320312 96.597656 237.296875 98.230469 238.355469 99.816406 C 239.414062 101.402344 240.550781 102.929688 241.757812 104.40625 C 242.96875 105.878906 244.246094 107.289062 245.59375 108.636719 C 246.941406 109.984375 248.351562 111.261719 249.824219 112.46875 C 251.296875 113.679688 252.828125 114.8125 254.410156 115.871094 C 255.996094 116.929688 257.628906 117.910156 259.3125 118.804688 C 260.992188 119.703125 262.714844 120.515625 264.472656 121.246094 C 266.234375 121.972656 268.027344 122.613281 269.851562 123.167969 C 271.675781 123.71875 273.523438 124.179688 275.390625 124.550781 C 277.261719 124.921875 279.144531 125.199219 281.042969 125.386719 C 282.9375 125.570312 284.839844 125.664062 286.746094 125.660156 Z M 286.746094 125.660156 " fill-opacity="1" fill-rule="nonzero"/><g clip-path="url(#178f3786df)"><path fill="#e11d48" d="M 286.746094 146.273438 C 285.457031 146.273438 284.167969 146.238281 282.878906 146.175781 C 281.59375 146.109375 280.308594 146.015625 279.023438 145.886719 C 277.742188 145.761719 276.460938 145.601562 275.1875 145.414062 C 273.914062 145.222656 272.644531 145.003906 271.378906 144.75 C 270.113281 144.5 268.855469 144.214844 267.605469 143.902344 C 266.355469 143.585938 265.113281 143.242188 263.878906 142.867188 C 262.648438 142.492188 261.421875 142.089844 260.210938 141.652344 C 258.996094 141.21875 257.792969 140.753906 256.601562 140.261719 C 255.410156 139.769531 254.234375 139.246094 253.066406 138.695312 C 251.902344 138.140625 250.75 137.5625 249.613281 136.953125 C 248.476562 136.347656 247.355469 135.710938 246.25 135.046875 C 245.144531 134.382812 244.058594 133.695312 242.984375 132.976562 C 241.914062 132.261719 240.859375 131.519531 239.824219 130.75 C 238.789062 129.984375 237.773438 129.191406 236.777344 128.371094 C 235.78125 127.554688 234.804688 126.710938 233.847656 125.847656 C 232.894531 124.980469 231.960938 124.09375 231.046875 123.179688 C 230.136719 122.269531 229.246094 121.335938 228.382812 120.378906 C 227.515625 119.425781 226.675781 118.449219 225.855469 117.453125 C 225.039062 116.457031 224.246094 115.441406 223.476562 114.40625 C 222.710938 113.371094 221.96875 112.316406 221.25 111.242188 C 220.535156 110.171875 219.84375 109.082031 219.179688 107.976562 C 218.519531 106.871094 217.882812 105.75 217.273438 104.613281 C 216.667969 103.476562 216.085938 102.324219 215.535156 101.160156 C 214.984375 99.996094 214.460938 98.816406 213.96875 97.625 C 213.472656 96.433594 213.007812 95.234375 212.574219 94.019531 C 212.140625 92.804688 211.734375 91.582031 211.359375 90.347656 C 210.984375 89.113281 210.640625 87.875 210.328125 86.621094 C 210.015625 85.371094 209.730469 84.113281 209.480469 82.851562 C 209.226562 81.585938 209.003906 80.316406 208.816406 79.042969 C 208.625 77.765625 208.46875 76.488281 208.339844 75.203125 C 208.214844 73.921875 208.117188 72.636719 208.054688 71.347656 C 207.988281 70.0625 207.957031 68.773438 207.957031 67.484375 C 207.957031 66.6875 207.917969 65.894531 207.839844 65.105469 C 207.761719 64.3125 207.644531 63.527344 207.488281 62.746094 C 207.335938 61.96875 207.140625 61.199219 206.910156 60.4375 C 206.679688 59.675781 206.414062 58.929688 206.109375 58.195312 C 205.804688 57.460938 205.464844 56.742188 205.089844 56.042969 C 204.714844 55.339844 204.308594 54.660156 203.867188 54 C 203.425781 53.339844 202.953125 52.699219 202.445312 52.085938 C 201.941406 51.472656 201.410156 50.882812 200.847656 50.320312 C 200.285156 49.757812 199.695312 49.226562 199.082031 48.722656 C 198.46875 48.21875 197.832031 47.746094 197.167969 47.300781 C 196.507812 46.859375 195.828125 46.453125 195.125 46.078125 C 194.425781 45.703125 193.707031 45.363281 192.972656 45.058594 C 192.238281 44.753906 191.492188 44.488281 190.730469 44.257812 C 189.96875 44.027344 189.199219 43.832031 188.421875 43.679688 C 187.640625 43.523438 186.855469 43.40625 186.0625 43.328125 C 185.273438 43.25 184.480469 43.210938 183.683594 43.210938 L 121.847656 43.210938 C 119.941406 43.210938 118.042969 43.300781 116.144531 43.488281 C 114.25 43.671875 112.363281 43.949219 110.496094 44.320312 C 108.625 44.691406 106.78125 45.152344 104.957031 45.707031 C 103.132812 46.257812 101.339844 46.898438 99.578125 47.625 C 97.816406 48.355469 96.09375 49.167969 94.414062 50.066406 C 92.734375 50.964844 91.101562 51.941406 89.515625 53 C 87.929688 54.058594 86.402344 55.191406 84.929688 56.402344 C 83.453125 57.609375 82.042969 58.890625 80.695312 60.238281 C 79.347656 61.585938 78.070312 62.996094 76.863281 64.46875 C 75.652344 65.941406 74.519531 67.472656 73.460938 69.054688 C 72.402344 70.640625 71.421875 72.273438 70.527344 73.953125 C 69.628906 75.636719 68.816406 77.355469 68.085938 79.117188 C 67.359375 80.878906 66.71875 82.671875 66.164062 84.496094 C 65.613281 86.320312 65.152344 88.167969 64.78125 90.035156 C 64.410156 91.90625 64.132812 93.789062 63.945312 95.6875 C 63.761719 97.582031 63.671875 99.484375 63.671875 101.390625 L 63.671875 273.605469 C 63.671875 275.507812 63.761719 277.410156 63.945312 279.308594 C 64.132812 281.203125 64.410156 283.085938 64.78125 284.957031 C 65.152344 286.828125 65.613281 288.671875 66.164062 290.496094 C 66.71875 292.320312 67.359375 294.113281 68.085938 295.875 C 68.816406 297.636719 69.628906 299.359375 70.527344 301.039062 C 71.421875 302.71875 72.402344 304.351562 73.460938 305.9375 C 74.519531 307.523438 75.652344 309.050781 76.863281 310.523438 C 78.070312 312 79.347656 313.410156 80.695312 314.757812 C 82.042969 316.105469 83.453125 317.382812 84.929688 318.589844 C 86.402344 319.800781 87.929688 320.933594 89.515625 321.992188 C 91.101562 323.050781 92.734375 324.027344 94.414062 324.925781 C 96.09375 325.824219 97.816406 326.636719 99.578125 327.367188 C 101.339844 328.09375 103.132812 328.734375 104.957031 329.289062 C 106.78125 329.839844 108.625 330.300781 110.496094 330.671875 C 112.363281 331.042969 114.25 331.320312 116.144531 331.503906 C 118.042969 331.691406 119.941406 331.78125 121.847656 331.78125 L 252.839844 331.78125 C 254.746094 331.78125 256.644531 331.691406 258.542969 331.503906 C 260.441406 331.320312 262.324219 331.042969 264.191406 330.671875 C 266.0625 330.300781 267.910156 329.839844 269.734375 329.289062 C 271.558594 328.734375 273.347656 328.09375 275.109375 327.367188 C 276.871094 326.636719 278.59375 325.824219 280.273438 324.925781 C 281.953125 324.027344 283.589844 323.050781 285.171875 321.992188 C 286.757812 320.933594 288.285156 319.800781 289.761719 318.589844 C 291.234375 317.382812 292.644531 316.105469 293.992188 314.757812 C 295.339844 313.410156 296.617188 312 297.828125 310.523438 C 299.035156 309.050781 300.167969 307.523438 301.226562 305.9375 C 302.285156 304.351562 303.265625 302.71875 304.164062 301.039062 C 305.058594 299.359375 305.875 297.636719 306.601562 295.875 C 307.332031 294.113281 307.972656 292.320312 308.523438 290.496094 C 309.074219 288.671875 309.535156 286.828125 309.90625 284.957031 C 310.277344 283.085938 310.554688 281.203125 310.742188 279.308594 C 310.925781 277.410156 311.019531 275.507812 311.015625 273.605469 L 311.015625 170.542969 C 311.015625 169.75 310.976562 168.957031 310.898438 168.164062 C 310.820312 167.375 310.707031 166.589844 310.550781 165.808594 C 310.394531 165.027344 310.203125 164.257812 309.972656 163.496094 C 309.742188 162.738281 309.472656 161.988281 309.167969 161.253906 C 308.863281 160.519531 308.523438 159.804688 308.152344 159.101562 C 307.777344 158.402344 307.367188 157.71875 306.925781 157.058594 C 306.484375 156.398438 306.011719 155.761719 305.507812 155.144531 C 305.003906 154.53125 304.46875 153.945312 303.90625 153.382812 C 303.34375 152.820312 302.757812 152.285156 302.144531 151.78125 C 301.527344 151.277344 300.890625 150.804688 300.230469 150.363281 C 299.570312 149.921875 298.886719 149.511719 298.1875 149.136719 C 297.484375 148.765625 296.769531 148.425781 296.035156 148.121094 C 295.300781 147.816406 294.550781 147.546875 293.792969 147.316406 C 293.03125 147.085938 292.261719 146.894531 291.480469 146.738281 C 290.703125 146.582031 289.914062 146.46875 289.125 146.390625 C 288.332031 146.3125 287.539062 146.273438 286.746094 146.273438 Z M 246.449219 290.558594 L 245.46875 290.558594 C 244.621094 290.566406 243.78125 290.507812 242.941406 290.382812 C 242.101562 290.257812 241.277344 290.070312 240.46875 289.8125 C 239.660156 289.558594 238.878906 289.242188 238.117188 288.863281 C 237.359375 288.488281 236.636719 288.050781 235.945312 287.558594 C 235.253906 287.066406 234.609375 286.523438 234.003906 285.929688 C 233.398438 285.335938 232.84375 284.695312 232.339844 284.015625 C 231.835938 283.332031 231.390625 282.617188 231 281.863281 C 230.609375 281.113281 230.277344 280.332031 230.011719 279.53125 C 229.082031 276.695312 228.3125 274.375 227.691406 272.882812 C 227.246094 271.726562 226.726562 270.609375 226.136719 269.519531 C 225.546875 268.429688 224.890625 267.386719 224.167969 266.382812 C 223.445312 265.375 222.664062 264.421875 221.820312 263.515625 C 220.976562 262.613281 220.078125 261.765625 219.125 260.972656 C 218.171875 260.183594 217.175781 259.457031 216.128906 258.792969 C 215.085938 258.128906 214.003906 257.535156 212.882812 257.011719 C 211.761719 256.484375 210.613281 256.03125 209.433594 255.652344 C 208.257812 255.273438 207.058594 254.96875 205.84375 254.742188 L 188.632812 251.546875 C 184.972656 250.921875 181.382812 250.007812 177.871094 248.800781 C 174.359375 247.597656 170.964844 246.121094 167.6875 244.367188 C 164.414062 242.617188 161.300781 240.613281 158.347656 238.363281 C 155.394531 236.109375 152.640625 233.632812 150.085938 230.9375 C 146.871094 227.378906 143.996094 223.566406 141.457031 219.496094 C 138.921875 215.425781 136.765625 211.164062 134.988281 206.707031 C 133.210938 202.253906 131.84375 197.675781 130.882812 192.976562 C 129.921875 188.277344 129.382812 183.53125 129.269531 178.738281 C 129.203125 172.9375 128.523438 167.210938 127.238281 161.558594 C 125.953125 155.902344 124.089844 150.449219 121.644531 145.191406 L 120.5625 142.976562 C 120.085938 142.28125 119.828125 141.511719 119.785156 140.671875 C 119.746094 139.832031 119.925781 139.042969 120.328125 138.304688 C 120.726562 137.566406 121.292969 136.988281 122.019531 136.566406 C 122.75 136.144531 123.535156 135.945312 124.375 135.964844 L 175.078125 138.851562 C 180.3125 139.085938 185.464844 139.859375 190.539062 141.171875 C 196.292969 142.636719 201.816406 144.71875 207.105469 147.425781 C 212.390625 150.128906 217.3125 153.386719 221.871094 157.195312 C 224.207031 159.253906 226.414062 161.441406 228.492188 163.761719 C 230.566406 166.085938 232.492188 168.523438 234.273438 171.078125 C 236.054688 173.632812 237.671875 176.285156 239.132812 179.035156 C 240.59375 181.785156 241.882812 184.613281 243 187.519531 C 244.117188 190.425781 245.054688 193.390625 245.816406 196.410156 C 246.574219 199.429688 247.148438 202.484375 247.539062 205.570312 C 247.929688 208.660156 248.132812 211.761719 248.148438 214.875 C 248.164062 217.988281 247.992188 221.09375 247.632812 224.1875 C 247.589844 224.578125 247.488281 224.957031 247.335938 225.320312 C 247.179688 225.683594 246.976562 226.015625 246.726562 226.320312 C 246.476562 226.625 246.183594 226.886719 245.859375 227.105469 C 245.53125 227.324219 245.175781 227.492188 244.800781 227.609375 C 244.425781 227.730469 244.039062 227.789062 243.644531 227.796875 C 243.25 227.800781 242.863281 227.75 242.484375 227.640625 C 242.101562 227.535156 241.746094 227.375 241.414062 227.164062 C 241.078125 226.953125 240.78125 226.699219 240.523438 226.402344 C 237.484375 222.949219 233.464844 218.519531 229.597656 214.1875 C 224.921875 208.949219 219.703125 204.320312 213.9375 200.304688 C 208.175781 196.292969 202.023438 193 195.484375 190.433594 L 182.242188 185.28125 L 199.402344 200.378906 C 205.90625 206.460938 211.96875 212.953125 217.59375 219.859375 C 228.851562 233.773438 238.558594 248.699219 246.707031 264.636719 C 248.355469 267.882812 250.777344 273.550781 253.558594 280.097656 C 253.679688 280.386719 253.78125 280.679688 253.863281 280.980469 C 253.945312 281.28125 254.007812 281.585938 254.054688 281.894531 C 254.097656 282.207031 254.125 282.515625 254.128906 282.828125 C 254.136719 283.140625 254.125 283.453125 254.089844 283.761719 C 254.058594 284.074219 254.007812 284.378906 253.9375 284.683594 C 253.867188 284.988281 253.78125 285.289062 253.671875 285.582031 C 253.566406 285.875 253.441406 286.160156 253.296875 286.4375 C 253.15625 286.714844 252.996094 286.984375 252.820312 287.242188 C 252.644531 287.5 252.457031 287.746094 252.25 287.980469 C 252.042969 288.214844 251.824219 288.4375 251.589844 288.644531 C 251.355469 288.851562 251.113281 289.042969 250.855469 289.222656 C 250.597656 289.398438 250.332031 289.558594 250.054688 289.703125 C 249.777344 289.847656 249.492188 289.972656 249.199219 290.082031 C 248.90625 290.191406 248.609375 290.28125 248.304688 290.355469 C 248 290.425781 247.695312 290.480469 247.382812 290.511719 C 247.074219 290.546875 246.761719 290.5625 246.449219 290.558594 Z M 246.449219 290.558594 " fill-opacity="1" fill-rule="nonzero"/></g><g clip-path="url(#32ad07a8e5)"><path fill="#e11d48" d="M 95.984375 127.425781 L 227.714844 127.425781 L 227.714844 308.554688 L 95.984375 308.554688 Z M 95.984375 127.425781 " fill-opacity="1" fill-rule="nonzero"/></g><g clip-path="url(#ac6119a7d9)"><path fill="#e11d48" d="M 141.433594 161.292969 L 273.164062 161.292969 L 273.164062 319.265625 L 141.433594 319.265625 Z M 141.433594 161.292969 " fill-opacity="1" fill-rule="nonzero"/></g><g clip-path="url(#ef29f6c699)"><path fill="#ffffff" d="M 234.171875 235.898438 L 234.171875 226.5625 L 168.824219 226.5625 L 168.824219 170.550781 L 178.160156 170.550781 L 164.15625 156.546875 L 150.152344 170.550781 L 159.488281 170.550781 L 159.488281 179.886719 L 140.816406 179.886719 L 140.816406 189.222656 L 159.488281 189.222656 L 159.488281 226.5625 C 159.488281 231.722656 163.664062 235.898438 168.824219 235.898438 L 206.167969 235.898438 L 206.167969 245.234375 L 196.832031 245.234375 L 210.835938 259.238281 L 224.835938 245.234375 L 215.5 245.234375 L 215.5 235.898438 Z M 178.160156 189.222656 L 206.167969 189.222656 L 206.167969 217.226562 L 215.5 217.226562 L 215.5 189.222656 C 215.5 184.0625 211.324219 179.886719 206.167969 179.886719 L 178.160156 179.886719 Z M 178.160156 189.222656 " fill-opacity="1" fill-rule="nonzero"/></g></svg>